<svg xmlns="http://www.w3.org/2000/svg" xmlns:xlink="http://www.w3.org/1999/xlink" width="24px" height="24px" preserveAspectRatio="xMidYMid meet" viewBox="0 0 256 256"><path d="M226.564 29.436a20.011 20.011 0 0 0-19.57-5.107L20.664 76.881a20 20 0 0 0-3.132 37.324l84.32 39.941l39.941 84.32a19.817 19.817 0 0 0 18.019 11.441q.858 0 1.728-.073a19.838 19.838 0 0 0 17.577-14.5l52.553-186.328a20.017 20.017 0 0 0-5.107-19.571zM158.916 218.55l-33.588-70.907l39.276-39.276a12 12 0 0 0-16.971-16.97l-39.276 39.275L37.45 97.084l169.184-47.718z" fill="currentColor"></path></svg>